<?xml version="1.0" encoding="utf-8"?>
<!-- Generator: Adobe Illustrator 22.0.1, SVG Export Plug-In . SVG Version: 6.00 Build 0)  -->
<svg version="1.1" id="Layer_1" xmlns="http://www.w3.org/2000/svg" xmlns:xlink="http://www.w3.org/1999/xlink" x="0px" y="0px"
	 viewBox="0 0 256.7 331.5" style="enable-background:new 0 0 256.7 331.5;" xml:space="preserve">
<style type="text/css">
	.st0{fill:#797979;}
</style>
<title>fow-roundal-green-final</title>
<path class="st0" d="M91.3,187.4V74.3h74v19.5H115v30.3h42.2v18.7H115v44.5H91.3z"/>
<path class="st0" d="M136.6,30.3l-14.5-14.5l14.5-14.5c1.8-1.6,4.5-1.5,6.2,0.2c1.6,1.7,1.6,4.3,0,6l-8.3,8.3l8.3,8.3
	c1.6,1.8,1.5,4.5-0.2,6.2C140.9,31.9,138.3,31.9,136.6,30.3z"/>
<path class="st0" d="M120.1,226.4l14.5,14.5l-14.5,14.5c-1.8,1.6-4.5,1.5-6.2-0.2c-1.6-1.7-1.6-4.3,0-6l8.3-8.3l-8.3-8.3
	c-1.6-1.8-1.5-4.5,0.2-6.2C115.8,224.8,118.4,224.8,120.1,226.4z"/>
<path class="st0" d="M64.9,53.2H44.4V32.7c-0.1-2.4,1.7-4.5,4.2-4.6c2.4-0.1,4.5,1.7,4.6,4.2c0,0.1,0,0.3,0,0.4v11.8h11.8
	c2.4,0.1,4.3,2.2,4.2,4.6C68.9,51.3,67.1,53.1,64.9,53.2z"/>
<path class="st0" d="M191.9,203.5h20.5V224c0.1,2.4-1.7,4.5-4.2,4.6s-4.5-1.7-4.6-4.2c0-0.1,0-0.3,0-0.4v-11.8h-11.8
	c-2.4,0.1-4.5-1.7-4.6-4.2s1.7-4.5,4.2-4.6C191.6,203.5,191.7,203.5,191.9,203.5z"/>
<path class="st0" d="M30.3,120.1l-14.5,14.5L1.3,120.1c-1.7-1.7-1.7-4.5,0-6.2s4.5-1.7,6.2,0c0,0,0,0,0,0l8.3,8.3l8.3-8.3
	c1.7-1.7,4.5-1.7,6.2,0C32,115.5,32.1,118.3,30.3,120.1C30.3,120,30.3,120.1,30.3,120.1z"/>
<path class="st0" d="M226.4,136.6l14.5-14.5l14.5,14.5c1.7,1.7,1.7,4.5,0,6.2c-1.7,1.7-4.5,1.7-6.2,0l-8.3-8.3l-8.3,8.3
	c-1.7,1.7-4.5,1.7-6.2,0S224.7,138.3,226.4,136.6z"/>
<path class="st0" d="M53.2,191.8v20.5H32.7c-2.4,0.1-4.5-1.7-4.6-4.2c-0.1-2.4,1.7-4.5,4.2-4.6c0.1,0,0.3,0,0.4,0h11.8v-11.8
	c-0.1-2.4,1.7-4.5,4.2-4.6c2.4-0.1,4.5,1.7,4.6,4.2C53.2,191.5,53.2,191.7,53.2,191.8z"/>
<path class="st0" d="M203.5,64.8V44.3H224c2.4,0.1,4.3,2.2,4.2,4.6c-0.1,2.3-1.9,4.1-4.2,4.2h-11.7v11.8c0.1,2.4-1.7,4.5-4.2,4.6
	c-2.4,0.1-4.5-1.7-4.6-4.2C203.5,65.1,203.5,65,203.5,64.8z"/>
<path class="st0" d="M98.8,34.5l-18.9-7.9l7.9-18.9c0.9-2.2,3.4-3.4,5.7-2.5s3.4,3.4,2.5,5.7c0,0.1,0,0.1-0.1,0.2l-4.5,10.9
	l10.8,4.5c2.2,0.9,3.3,3.5,2.3,5.7S101,35.4,98.8,34.5C98.8,34.5,98.8,34.5,98.8,34.5z"/>
<path class="st0" d="M157.9,222.2l18.9,7.9l-7.9,18.9c-0.9,2.2-3.5,3.3-5.7,2.3s-3.3-3.5-2.3-5.7l0,0l4.5-10.9l-10.9-4.5
	c-2.2-0.9-3.3-3.5-2.4-5.7C153.1,222.3,155.7,221.2,157.9,222.2L157.9,222.2z"/>
<path class="st0" d="M41.1,82.9l-19,7.8l-7.8-19c-1-2.2,0-4.8,2.2-5.8s4.8,0,5.8,2.2c0,0.1,0.1,0.2,0.1,0.3l4.5,10.9l10.9-4.5
	c2.3-0.8,4.8,0.3,5.6,2.6C44.2,79.5,43.2,81.9,41.1,82.9z"/>
<path class="st0" d="M215.6,173.8l19-7.8l7.8,19c1,2.2,0,4.8-2.2,5.8c-2.2,1-4.8,0-5.8-2.2c0-0.1-0.1-0.2-0.1-0.3l-4.5-10.9
	l-10.9,4.5c-2.3,0.8-4.8-0.3-5.6-2.6C212.5,177.1,213.6,174.7,215.6,173.8L215.6,173.8z"/>
<path class="st0" d="M34.5,157.9l-7.9,18.9l-18.9-7.9c-2.2-1-3.2-3.6-2.2-5.8c0.9-2.2,3.4-3.2,5.6-2.3l10.9,4.5l4.5-10.9
	c0.9-2.2,3.5-3.3,5.7-2.3S35.5,155.7,34.5,157.9L34.5,157.9z"/>
<path class="st0" d="M222.2,98.8l7.9-18.9l18.9,7.9c2.2,1,3.2,3.6,2.2,5.8c-1,2.1-3.4,3.1-5.5,2.3l-10.8-4.5l-4.5,10.8
	c-1,2.2-3.6,3.2-5.8,2.2C222.4,103.4,221.3,101,222.2,98.8L222.2,98.8z"/>
<path class="st0" d="M82.9,215.6l7.8,19l-19,7.8c-2.2,1-4.8,0-5.8-2.2c-1-2.2,0-4.8,2.2-5.8c0.1,0,0.2-0.1,0.3-0.1l10.9-4.5
	l-4.5-10.9c-0.8-2.3,0.3-4.8,2.6-5.6C79.5,212.5,81.9,213.5,82.9,215.6L82.9,215.6z"/>
<path class="st0" d="M173.8,41.1l-7.8-19l19-7.8c2.3-0.8,4.8,0.3,5.6,2.6c0.8,2.2-0.2,4.6-2.3,5.5l-10.9,4.5l4.5,10.9
	c0.9,2.2-0.2,4.8-2.4,5.7S174.8,43.3,173.8,41.1L173.8,41.1z"/>
<path class="st0" d="M3.7,308.6H0v-4.3h3.7v-2.6c0-5.2,2.5-7.7,7.9-7.7c1,0,2.1,0.1,3.1,0.3v4.1c-0.7-0.1-1.3-0.2-2-0.1
	c-2.4,0-3.5,1.2-3.5,3.6v2.5h5.4v4.3H9.2V331H3.7V308.6z"/>
<path class="st0" d="M21.9,317.6c0-8.6,5.1-13.9,12.7-13.9s12.7,5.3,12.7,13.9s-5,13.9-12.7,13.9S21.9,326.3,21.9,317.6z
	 M41.7,317.6c0-5.9-2.8-9.4-7.1-9.4s-7.1,3.4-7.1,9.4s2.8,9.4,7.1,9.4S41.7,323.6,41.7,317.6z"/>
<path class="st0" d="M84.8,331H79l-5.6-20.1h-0.1L67.7,331H62l-7.4-26.8h5.5l4.9,21.1h0.1l5.6-21.1H76l5.6,21.1h0.1l4.9-21.1h5.5
	L84.8,331z"/>
<path class="st0" d="M98.4,328c0-1.9,1.5-3.4,3.4-3.4c1.9,0,3.3,1.5,3.3,3.4c0,1.9-1.5,3.4-3.3,3.4C99.9,331.4,98.4,329.9,98.4,328
	C98.4,328,98.4,328,98.4,328z"/>
<path class="st0" d="M133,313.4c-0.5-3.1-3.2-5.3-6.3-5.1c-4.3,0-7.1,3.5-7.1,9.3s2.8,9.3,7.1,9.3c3.1,0.2,5.8-2,6.2-5h5.3
	c-0.6,5.7-5.1,9.6-11.6,9.6c-7.7,0-12.7-5.2-12.7-13.9c0-8.5,5-13.9,12.6-13.9c6.9,0,11.1,4.4,11.6,9.7L133,313.4z"/>
<path class="st0" d="M146.2,317.6c0-8.6,5.1-13.9,12.7-13.9s12.7,5.3,12.7,13.9s-5.1,13.9-12.7,13.9S146.2,326.3,146.2,317.6z
	 M166,317.6c0-5.9-2.8-9.4-7.1-9.4s-7.1,3.4-7.1,9.4s2.8,9.4,7.1,9.4S166,323.6,166,317.6L166,317.6z"/>
<path class="st0" d="M180.7,328c0-1.8,1.5-3.3,3.3-3.3s3.3,1.5,3.3,3.4c0,1.8-1.5,3.3-3.3,3.3C182.2,331.4,180.7,329.9,180.7,328
	C180.7,328,180.7,328,180.7,328z"/>
<path class="st0" d="M221.9,331h-5.3v-4.5h-0.1c-1.5,3.2-4.2,5-8.3,5c-5.8,0-9.4-3.8-9.4-10v-17.3h5.5v16.3c0,4.1,1.9,6.3,5.7,6.3
	c4,0,6.4-2.8,6.4-6.9v-15.6h5.5V331z"/>
<path class="st0" d="M249.1,304.2h6.5l-11.1,11.6L256,331h-6.4l-9.1-11.9l-2.3,2.3v9.6h-5.5v-36.8h5.5v21.5l0,0L249.1,304.2z"/>
</svg>
