<svg xmlns="http://www.w3.org/2000/svg" xmlns:xlink="http://www.w3.org/1999/xlink" width="140" height="97" viewBox="0 0 140 97">
    <defs>
        <path id="a" d="M0 96.636h139.926V.1H0z"/>
    </defs>
    <g fill="none" fill-rule="evenodd">
        <path fill="#B4D234" d="M58.87.163L31.845.216l61.76 54.041L58.943.163z"/>
        <g transform="translate(0 .061)">
            <path fill="#FEFEFE" d="M11.846 62.632c0-.66-.124-1.278-.371-1.855a4.784 4.784 0 0 0-2.534-2.534 4.585 4.585 0 0 0-1.823-.37c-.639 0-1.247.134-1.823.401a5.098 5.098 0 0 0-1.514 1.067 5.21 5.21 0 0 0-1.036 1.53 4.276 4.276 0 0 0-.386 1.76l.031 9.27H.196v-15.45H2.36v1.422c.206-.33.484-.634.835-.912.35-.278.736-.514 1.158-.71a6.682 6.682 0 0 1 2.766-.603c.947 0 1.843.185 2.688.556.845.371 1.581.87 2.21 1.499a7.122 7.122 0 0 1 1.498 2.225c.371.855.557 1.756.557 2.704l.03 9.27h-2.225l-.03-9.27zM28.964 59.665a6.371 6.371 0 0 0-2.024-1.36 6.2 6.2 0 0 0-2.456-.494 6.2 6.2 0 0 0-2.457.494 6.37 6.37 0 0 0-3.229 3.029h11.34a6.78 6.78 0 0 0-1.174-1.67M18.15 64.147c0 .865.165 1.684.495 2.456a6.35 6.35 0 0 0 1.36 2.024 6.353 6.353 0 0 0 2.023 1.36c.773.33 1.592.494 2.457.494.865 0 1.684-.165 2.456-.494a6.355 6.355 0 0 0 2.024-1.36 6.06 6.06 0 0 0 1.051-1.421h2.38l-.093.247a8.36 8.36 0 0 1-1.808 2.704 8.569 8.569 0 0 1-2.704 1.823 8.282 8.282 0 0 1-3.306.664 8.28 8.28 0 0 1-3.307-.664 8.564 8.564 0 0 1-2.703-1.823 8.567 8.567 0 0 1-1.823-2.704 8.274 8.274 0 0 1-.665-3.306c0-1.175.221-2.276.665-3.307a8.574 8.574 0 0 1 1.823-2.704 8.575 8.575 0 0 1 2.703-1.823 8.283 8.283 0 0 1 3.307-.664c1.174 0 2.276.222 3.306.664a8.58 8.58 0 0 1 2.704 1.823 8.367 8.367 0 0 1 1.808 2.704c.37.845.587 1.73.648 2.658H18.18c-.02.226-.03.443-.03.649M36.133 71.902h-2.472l4.079-7.725-4.079-7.726h2.503l2.843 5.346 2.843-5.346h2.503l-4.11 7.726 4.11 7.725H41.88l-2.874-5.377zM58.134 64.949V56.45h2.163v8.498c0 .948-.18 1.844-.54 2.688a6.947 6.947 0 0 1-1.484 2.21 7.163 7.163 0 0 1-2.21 1.498c-.844.371-1.74.557-2.688.557a6.614 6.614 0 0 1-2.688-.557 7.153 7.153 0 0 1-2.21-1.498 7.153 7.153 0 0 1-1.498-2.21 6.616 6.616 0 0 1-.556-2.688v-.03l-.031-8.468h2.225l.03 8.467v.03a4.654 4.654 0 0 0 1.391 3.354c.433.422.932.757 1.499 1.004.566.247 1.179.37 1.838.37.66 0 1.277-.123 1.854-.37a4.92 4.92 0 0 0 1.514-1.004 4.654 4.654 0 0 0 1.39-3.353M71.112 68.014c.02-.7-.108-1.244-.386-1.635-.278-.39-.685-.71-1.221-.956-.536-.247-1.205-.472-2.008-.678a15.694 15.694 0 0 1-2.225-.74 4.726 4.726 0 0 1-1.762-1.295c-.494-.576-.793-1.296-.896-2.159-.082-.678.01-1.306.278-1.881a4.783 4.783 0 0 1 1.128-1.526 5.82 5.82 0 0 1 1.746-1.08 5.518 5.518 0 0 1 2.101-.416c.824 0 1.54.134 2.148.402a4.838 4.838 0 0 1 1.53 1.035c.411.422.736.85.973 1.282.236.433.376.804.417 1.113h-2.317a2.401 2.401 0 0 0-1.051-1.375 3.164 3.164 0 0 0-1.7-.48c-.412 0-.855.083-1.328.248-.475.165-.912.494-1.314.989-.401.494-.55 1.02-.448 1.576.103.494.345.875.727 1.143.38.268.885.515 1.514.741a67.15 67.15 0 0 0 2.085.711 9.53 9.53 0 0 1 2.148 1.004c.67.423 1.19.954 1.56 1.592.371.639.557 1.442.557 2.41 0 .721-.15 1.37-.448 1.947a4.34 4.34 0 0 1-1.205 1.452 5.478 5.478 0 0 1-1.762.896 7.071 7.071 0 0 1-2.086.31 6.136 6.136 0 0 1-2.132-.387 5.937 5.937 0 0 1-1.854-1.081 5.24 5.24 0 0 1-1.282-1.67c-.32-.648-.469-1.415-.448-2.301h2.163c0 .53.108 1.025.326 1.484.217.46.61.878 1.18 1.256.568.377 1.298.556 2.188.535 1.014 0 1.774-.241 2.281-.724a2.548 2.548 0 0 0 .823-1.742"/>
            <path fill="#B4D234" d="M77.292 64.177c0 .865.164 1.684.494 2.456.33.773.783 1.448 1.36 2.024a6.347 6.347 0 0 0 4.48 1.854c.866 0 1.684-.165 2.457-.494a6.355 6.355 0 0 0 2.024-1.36 6.363 6.363 0 0 0 1.36-2.024 6.2 6.2 0 0 0 .494-2.456c0-.866-.165-1.685-.494-2.457a6.372 6.372 0 0 0-1.36-2.024 6.373 6.373 0 0 0-2.024-1.36 6.202 6.202 0 0 0-2.457-.494 6.2 6.2 0 0 0-2.456.494 6.366 6.366 0 0 0-2.024 1.36 6.356 6.356 0 0 0-1.36 2.024 6.19 6.19 0 0 0-.494 2.457zm-2.163 0c0-1.175.22-2.277.664-3.307a8.574 8.574 0 0 1 1.823-2.704 8.574 8.574 0 0 1 2.704-1.823 8.279 8.279 0 0 1 3.306-.664c1.175 0 2.276.221 3.307.664a8.58 8.58 0 0 1 2.704 1.823 8.579 8.579 0 0 1 1.823 2.704 8.28 8.28 0 0 1 .664 3.307 8.28 8.28 0 0 1-.664 3.306 8.572 8.572 0 0 1-1.823 2.704 8.572 8.572 0 0 1-2.704 1.823 8.284 8.284 0 0 1-3.307.664c-1.174 0-2.379-.314-3.615-.942-1.236-.629-2.143-1.406-2.72-2.333v8.652H75.13V64.177zM95.616 64.146c0 .865.165 1.684.494 2.456.33.773.783 1.448 1.36 2.024a6.352 6.352 0 0 0 2.024 1.36c.772.33 1.591.494 2.456.494.866 0 1.685-.165 2.457-.494a6.359 6.359 0 0 0 2.024-1.36 6.37 6.37 0 0 0 1.36-2.024c.329-.772.494-1.591.494-2.456 0-.866-.165-1.684-.494-2.457a6.375 6.375 0 0 0-1.36-2.024 6.375 6.375 0 0 0-2.024-1.36 6.202 6.202 0 0 0-2.457-.494 6.2 6.2 0 0 0-2.456.494 6.368 6.368 0 0 0-2.024 1.36 6.359 6.359 0 0 0-1.36 2.024 6.193 6.193 0 0 0-.494 2.457m-2.163 0c0-1.175.22-2.276.664-3.307a8.57 8.57 0 0 1 1.823-2.704 8.57 8.57 0 0 1 2.704-1.823 8.279 8.279 0 0 1 3.306-.664 8.28 8.28 0 0 1 3.307.664 8.578 8.578 0 0 1 2.704 1.823 8.578 8.578 0 0 1 1.823 2.704 8.28 8.28 0 0 1 .664 3.307 8.28 8.28 0 0 1-.664 3.306 8.572 8.572 0 0 1-1.823 2.704 8.57 8.57 0 0 1-2.704 1.823 8.28 8.28 0 0 1-3.307.664 8.279 8.279 0 0 1-3.306-.664 8.562 8.562 0 0 1-2.704-1.823 8.565 8.565 0 0 1-1.823-2.704 8.273 8.273 0 0 1-.664-3.306"/>
            <mask id="b" fill="#fff">
                <use xlink:href="#a"/>
            </mask>
            <path fill="#B4D234" d="M112.27 71.902h2.164v-15.45h-2.163v15.45zm-.185-20.333c0-.37.124-.68.371-.927s.556-.37.927-.37.68.123.927.37.371.556.371.927c0 .37-.124.68-.37.927-.248.247-.557.37-.928.37-.37 0-.68-.123-.927-.37a1.258 1.258 0 0 1-.37-.927zM128.277 62.632c0-.66-.124-1.278-.37-1.855a4.781 4.781 0 0 0-2.535-2.534 4.585 4.585 0 0 0-1.823-.37c-.639 0-1.246.134-1.823.401a5.099 5.099 0 0 0-1.514 1.067 5.213 5.213 0 0 0-1.035 1.53 4.278 4.278 0 0 0-.386 1.76l.03 9.27h-2.194v-15.45h2.164v1.422c.205-.33.483-.634.834-.912.35-.278.736-.514 1.158-.71a6.683 6.683 0 0 1 2.766-.603c.948 0 1.843.185 2.688.556.845.371 1.581.87 2.21 1.499a7.124 7.124 0 0 1 1.499 2.225c.37.855.556 1.756.556 2.704l.03 9.27h-2.224l-.031-9.27zM132.14 58.614v-2.163h1.575v-6.18h2.163v6.18h4.048v2.163h-4.048v13.288h-2.163V58.614z" mask="url(#b)"/>
            <path fill="#FEFEFE" d="M6.962 91.638L5.35 87.943l-1.69 3.695h3.302zm.668 1.542H2.978l-1.211 2.64H0l5.378-11.552 5.187 11.551H8.77l-1.14-2.64zM13.149 84.951v6.546c0 .934.152 1.617.457 2.049.455.624 1.096.936 1.922.936.83 0 1.473-.312 1.929-.936.305-.418.457-1.1.457-2.049v-6.546h1.64v6.997c0 1.145-.356 2.088-1.07 2.83-.802.825-1.788 1.238-2.956 1.238-1.169 0-2.152-.413-2.95-1.238-.713-.742-1.07-1.685-1.07-2.83V84.95h1.64zM25.157 86.493v9.326h-1.64v-9.326h-2.499V84.95h6.631v1.542zM29.88 90.357c0 1.201.404 2.19 1.211 2.963.802.775 1.73 1.162 2.78 1.162 1.14 0 2.103-.394 2.886-1.183.784-.797 1.176-1.769 1.176-2.914 0-1.159-.387-2.13-1.161-2.914-.77-.788-1.723-1.183-2.858-1.183-1.131 0-2.086.395-2.865 1.183-.78.779-1.169 1.741-1.169 2.886m-1.654-.021c0-1.53.56-2.844 1.682-3.942 1.117-1.098 2.46-1.647 4.027-1.647 1.548 0 2.876.554 3.984 1.661 1.112 1.108 1.668 2.438 1.668 3.991 0 1.563-.558 2.889-1.675 3.977-1.122 1.094-2.476 1.64-4.062 1.64-1.403 0-2.663-.485-3.78-1.457-1.23-1.074-1.844-2.482-1.844-4.223M45.795 95.82h1.584v-6.857h-1.584v6.856zm-.239-9.707c0-.277.1-.516.303-.719a.99.99 0 0 1 .725-.302c.286 0 .53.1.732.302a.974.974 0 0 1 .303.725c0 .287-.101.53-.303.733a.974.974 0 0 1-.725.302c-.286 0-.53-.1-.732-.302a1.005 1.005 0 0 1-.303-.74zM53.37 90.132l-1.31.697c-.206-.423-.462-.634-.767-.634a.528.528 0 0 0-.373.144.483.483 0 0 0-.155.37c0 .263.305.523.915.781.84.362 1.405.695 1.696 1 .291.305.437.715.437 1.232 0 .661-.244 1.215-.732 1.66-.474.423-1.047.634-1.718.634-1.15 0-1.964-.56-2.442-1.682l1.351-.626c.188.328.331.537.43.626a.98.98 0 0 0 .69.268c.534 0 .802-.244.802-.732 0-.282-.207-.545-.62-.789-.16-.08-.319-.157-.478-.232a38.48 38.48 0 0 1-.486-.232c-.46-.226-.784-.451-.971-.676-.24-.286-.36-.655-.36-1.105 0-.596.205-1.089.613-1.479.418-.389.925-.584 1.52-.584.878 0 1.53.453 1.957 1.359M60.979 92.37c0 .685.183 1.227.548 1.626.376.404.871.605 1.486.605.62 0 1.114-.199 1.485-.598.37-.398.556-.931.556-1.598 0-.666-.185-1.199-.556-1.598-.375-.403-.87-.605-1.485-.605-.606 0-1.096.202-1.471.605-.376.404-.563.925-.563 1.563m-1.62-.028c0-.99.355-1.832 1.063-2.527.709-.695 1.572-1.042 2.59-1.042 1.024 0 1.892.35 2.605 1.05.704.698 1.056 1.557 1.056 2.575 0 1.028-.354 1.89-1.063 2.584-.713.69-1.588 1.034-2.625 1.034-1.028 0-1.89-.352-2.584-1.055-.694-.695-1.041-1.568-1.041-2.619M69.932 88.963v3.935c0 1.136.448 1.704 1.345 1.704.896 0 1.344-.568 1.344-1.704v-3.935h1.584v3.97c0 .55-.068 1.023-.204 1.422a2.386 2.386 0 0 1-.683.965c-.535.464-1.216.696-2.041.696-.822 0-1.5-.232-2.035-.696a2.426 2.426 0 0 1-.697-.965c-.131-.319-.197-.793-.197-1.422v-3.97h1.584zM76.204 88.963h1.584v.613c.29-.305.549-.514.774-.627.23-.117.502-.176.816-.176.418 0 .855.136 1.31.409l-.725 1.45c-.3-.216-.594-.324-.88-.324-.864 0-1.295.652-1.295 1.957v3.554h-1.584v-6.856zM85.967 95.82l2.287-11.685 3.731 8.446 3.865-8.446 2.055 11.684h-1.682l-1.05-6.56-3.216 7.06-3.125-7.067-1.169 6.567zM101.319 90.357c0 1.201.403 2.19 1.21 2.963.803.775 1.73 1.162 2.78 1.162 1.141 0 2.103-.394 2.887-1.183.783-.797 1.175-1.769 1.175-2.914 0-1.159-.387-2.13-1.161-2.914-.77-.788-1.722-1.183-2.858-1.183-1.13 0-2.086.395-2.865 1.183-.779.779-1.168 1.741-1.168 2.886m-1.654-.021c0-1.53.56-2.844 1.682-3.942 1.117-1.098 2.459-1.647 4.026-1.647 1.549 0 2.877.554 3.984 1.661 1.112 1.108 1.668 2.438 1.668 3.991 0 1.563-.558 2.889-1.675 3.977-1.121 1.094-2.475 1.64-4.061 1.64-1.403 0-2.663-.485-3.78-1.457-1.23-1.074-1.844-2.482-1.844-4.223M115.7 86.493v9.326h-1.64v-9.326h-2.5V84.95h6.631v1.542zM119.655 95.82h1.64V84.95h-1.64zM124.456 84.951l3.006 7.532 3.047-7.532h1.795l-4.878 11.685-4.765-11.685zM139.653 86.493h-4.357v2.611h4.23v1.542h-4.23v3.632h4.357v1.541h-5.997V84.951h5.997z" mask="url(#b)"/>
        </g>
    </g>
</svg>
